<svg width="2400" height="800" viewBox="0 0 2400 800" fill="none" xmlns="http://www.w3.org/2000/svg">
  <defs>
    <linearGradient id="bg" x1="0" y1="0" x2="2400" y2="800" gradientUnits="userSpaceOnUse">
      <stop offset="0" stop-color="#12080A"/>
      <stop offset="0.44" stop-color="#7B0712"/>
      <stop offset="1" stop-color="#D7A43A"/>
    </linearGradient>
    <radialGradient id="glow" cx="0" cy="0" r="1" gradientUnits="userSpaceOnUse" gradientTransform="translate(1800 260) rotate(128) scale(760 540)">
      <stop stop-color="#FFD76A" stop-opacity="0.85"/>
      <stop offset="0.48" stop-color="#C67B12" stop-opacity="0.35"/>
      <stop offset="1" stop-color="#12080A" stop-opacity="0"/>
    </radialGradient>
    <linearGradient id="gold" x1="0" y1="0" x2="1" y2="1">
      <stop stop-color="#FFE59A"/>
      <stop offset="0.5" stop-color="#C68A23"/>
      <stop offset="1" stop-color="#FFF2B4"/>
    </linearGradient>
    <filter id="shadow" x="-30%" y="-30%" width="160%" height="160%">
      <feDropShadow dx="0" dy="28" stdDeviation="26" flood-color="#000" flood-opacity="0.28"/>
    </filter>
  </defs>
  <rect width="2400" height="800" rx="48" fill="url(#bg)"/>
  <rect width="2400" height="800" rx="48" fill="url(#glow)"/>
  <path d="M0 650C330 530 520 665 810 570C1170 452 1320 170 1710 190C2010 206 2200 340 2400 250V800H0V650Z" fill="#11090B" fill-opacity="0.34"/>
  <g opacity="0.34">
    <circle cx="2050" cy="126" r="8" fill="#FFE39A"/>
    <circle cx="2112" cy="190" r="5" fill="#FFE39A"/>
    <circle cx="1942" cy="238" r="6" fill="#FFE39A"/>
    <circle cx="2195" cy="330" r="7" fill="#FFE39A"/>
    <circle cx="1810" cy="120" r="4" fill="#FFE39A"/>
  </g>
  <g filter="url(#shadow)">
    <rect x="1455" y="245" width="360" height="210" rx="18" transform="rotate(-10 1455 245)" fill="url(#gold)"/>
    <rect x="1646" y="190" width="360" height="230" rx="18" fill="url(#gold)"/>
    <rect x="1840" y="245" width="360" height="210" rx="18" transform="rotate(10 1840 245)" fill="url(#gold)"/>
    <rect x="1460" y="485" width="735" height="74" rx="14" fill="#0A0707" fill-opacity="0.84"/>
    <text x="1828" y="535" text-anchor="middle" font-family="Arial, Helvetica, sans-serif" font-size="34" font-weight="700" fill="#D9A13B">Gram Altın ve Hediye Çeki Seçenekleri</text>
  </g>
  <g>
    <text x="148" y="190" font-family="Arial, Helvetica, sans-serif" font-size="76" font-weight="900" fill="#FFFFFF">Hediyemo'da</text>
    <text x="148" y="282" font-family="Arial, Helvetica, sans-serif" font-size="62" font-weight="800" fill="#FFE0A0">Puanlarını Değere Dönüştür</text>
    <text x="148" y="365" font-family="Arial, Helvetica, sans-serif" font-size="31" font-weight="600" fill="#FFFFFF" fill-opacity="0.82">Hediye çekleri, yakıt puanları ve altın seçenekleri tek ekranda.</text>
    <rect x="148" y="430" width="250" height="62" rx="31" fill="#B5000B"/>
    <text x="273" y="472" text-anchor="middle" font-family="Arial, Helvetica, sans-serif" font-size="24" font-weight="800" fill="#FFFFFF">HEMEN İNCELE</text>
  </g>
</svg>
